{
    "asset" : {
        "generator" : "Khronos glTF Blender I/O v1.6.16",
        "version" : "2.0"
    },
    "scene" : 0,
    "scenes" : [
        {
            "name" : "Scene",
            "nodes" : [
                11
            ]
        }
    ],
    "nodes" : [
        {
            "mesh" : 0,
            "name" : "Bottom",
            "rotation" : [
                0.7071068286895752,
                0,
                0,
                0.7071068286895752
            ],
            "translation" : [
                0,
                0.5114296674728394,
                -0.029297608882188797
            ]
        },
        {
            "mesh" : 1,
            "name" : "BottomPrint",
            "rotation" : [
                0.09229595214128494,
                -0.7010573744773865,
                0.7010573744773865,
                0.09229595214128494
            ],
            "translation" : [
                0,
                0.4987597167491913,
                -0.029297608882188797
            ]
        },
        {
            "mesh" : 2,
            "name" : "Screw_1"
        },
        {
            "children" : [
                2
            ],
            "name" : "Screw",
            "rotation" : [
                0,
                -0.7071068286895752,
                -0.7071068286895752,
                4.329781625202257e-17
            ],
            "translation" : [
                0,
                0.512543261051178,
                -0.029297608882188797
            ]
        },
        {
            "mesh" : 3,
            "name" : "screwmiddle",
            "rotation" : [
                0.7071068286895752,
                0,
                0,
                0.7071068286895752
            ],
            "translation" : [
                0,
                0.5114296674728394,
                -0.029297608882188797
            ]
        },
        {
            "mesh" : 4,
            "name" : "Top"
        },
        {
            "mesh" : 5,
            "name" : "topcut",
            "translation" : [
                0,
                0,
                0.02104666642844677
            ]
        },
        {
            "children" : [
                5,
                6
            ],
            "name" : "TopCapGlass",
            "rotation" : [
                0.7071068286895752,
                0,
                0,
                0.7071068286895752
            ],
            "translation" : [
                0,
                0.5102382898330688,
                -0.029297608882188797
            ]
        },
        {
            "mesh" : 6,
            "name" : "TopPrint",
            "rotation" : [
                0.7071068286895752,
                0,
                0,
                0.7071068286895752
            ],
            "translation" : [
                0,
                0.5133346915245056,
                -0.029297608882188797
            ]
        },
        {
            "children" : [
                0,
                1,
                3,
                4,
                7,
                8
            ],
            "name" : "ButterGloss"
        },
        {
            "children" : [
                9
            ],
            "name" : "3d2f9362-5420-44b4-a2b1-af2730687a8b",
            "scale" : [
                0.10000000149011612,
                0.10000000149011612,
                0.10000000149011612
            ]
        },
        {
            "children" : [
                10
            ],
            "name" : "AuxScene"
        }
    ],
    "materials" : [
        {
            "doubleSided" : true,
            "name" : "Bottom",
            "pbrMetallicRoughness" : {
                "baseColorFactor" : [
                    1,
                    0.0036765073891729116,
                    0.2158605009317398,
                    1
                ],
                "metallicFactor" : 0,
                "roughnessFactor" : 0.1599999964237213
            }
        },
        {
            "alphaMode" : "BLEND",
            "doubleSided" : true,
            "name" : "BottomPrint",
            "pbrMetallicRoughness" : {
                "baseColorTexture" : {
                    "index" : 0
                },
                "metallicFactor" : 0,
                "roughnessFactor" : 0.20000000298023224
            }
        },
        {
            "alphaMode" : "BLEND",
            "doubleSided" : true,
            "name" : "glass",
            "pbrMetallicRoughness" : {
                "baseColorFactor" : [
                    1,
                    0.16513219475746155,
                    0.48514994978904724,
                    0.44999998807907104
                ],
                "metallicFactor" : 0.20000000298023224,
                "roughnessFactor" : 0.30000001192092896
            }
        },
        {
            "alphaCutoff" : 0.5,
            "alphaMode" : "MASK",
            "name" : "TopPrint",
            "pbrMetallicRoughness" : {
                "baseColorTexture" : {
                    "index" : 1
                },
                "metallicFactor" : 0.05000000074505806,
                "roughnessFactor" : 0.10000000149011612
            }
        }
    ],
    "meshes" : [
        {
            "name" : "Mesh_2",
            "primitives" : [
                {
                    "attributes" : {
                        "POSITION" : 0,
                        "NORMAL" : 1,
                        "TEXCOORD_0" : 2
                    },
                    "indices" : 3,
                    "material" : 0
                }
            ]
        },
        {
            "name" : "Mesh_3",
            "primitives" : [
                {
                    "attributes" : {
                        "POSITION" : 4,
                        "NORMAL" : 5,
                        "TEXCOORD_0" : 6
                    },
                    "indices" : 7,
                    "material" : 1
                }
            ]
        },
        {
            "name" : "Mesh_0",
            "primitives" : [
                {
                    "attributes" : {
                        "POSITION" : 8,
                        "NORMAL" : 9,
                        "TEXCOORD_0" : 10
                    },
                    "indices" : 11,
                    "material" : 0
                }
            ]
        },
        {
            "name" : "Mesh_1",
            "primitives" : [
                {
                    "attributes" : {
                        "POSITION" : 12,
                        "NORMAL" : 13,
                        "TEXCOORD_0" : 14
                    },
                    "indices" : 15,
                    "material" : 0
                }
            ]
        },
        {
            "name" : "Mesh_5",
            "primitives" : [
                {
                    "attributes" : {
                        "POSITION" : 16,
                        "NORMAL" : 17,
                        "TEXCOORD_0" : 18
                    },
                    "indices" : 19,
                    "material" : 2
                }
            ]
        },
        {
            "name" : "Mesh_6",
            "primitives" : [
                {
                    "attributes" : {
                        "POSITION" : 20,
                        "NORMAL" : 21,
                        "TEXCOORD_0" : 22
                    },
                    "indices" : 23,
                    "material" : 2
                }
            ]
        },
        {
            "name" : "Mesh_4",
            "primitives" : [
                {
                    "attributes" : {
                        "POSITION" : 24,
                        "NORMAL" : 25,
                        "TEXCOORD_0" : 26
                    },
                    "indices" : 7,
                    "material" : 3
                }
            ]
        }
    ],
    "textures" : [
        {
            "sampler" : 0,
            "source" : 0
        },
        {
            "sampler" : 0,
            "source" : 1
        }
    ],
    "images" : [
        {
            "bufferView" : 8,
            "mimeType" : "image/png",
            "name" : "Image_0"
        },
        {
            "bufferView" : 28,
            "mimeType" : "image/png",
            "name" : "Image_1"
        }
    ],
    "accessors" : [
        {
            "bufferView" : 0,
            "componentType" : 5126,
            "count" : 401,
            "max" : [
                0.08500000089406967,
                0.08453436195850372,
                0.5099999904632568
            ],
            "min" : [
                -0.08500000089406967,
                -0.08453436195850372,
                0
            ],
            "type" : "VEC3"
        },
        {
            "bufferView" : 1,
            "componentType" : 5126,
            "count" : 401,
            "type" : "VEC3"
        },
        {
            "bufferView" : 2,
            "componentType" : 5126,
            "count" : 401,
            "type" : "VEC2"
        },
        {
            "bufferView" : 3,
            "componentType" : 5123,
            "count" : 1980,
            "type" : "SCALAR"
        },
        {
            "bufferView" : 4,
            "componentType" : 5126,
            "count" : 155,
            "max" : [
                0.08649999648332596,
                0.0860261470079422,
                0.4399999976158142
            ],
            "min" : [
                -0.08649999648332596,
                -0.0860261470079422,
                0
            ],
            "type" : "VEC3"
        },
        {
            "bufferView" : 5,
            "componentType" : 5126,
            "count" : 155,
            "type" : "VEC3"
        },
        {
            "bufferView" : 6,
            "componentType" : 5126,
            "count" : 155,
            "type" : "VEC2"
        },
        {
            "bufferView" : 7,
            "componentType" : 5123,
            "count" : 720,
            "type" : "SCALAR"
        },
        {
            "bufferView" : 9,
            "componentType" : 5126,
            "count" : 33391,
            "max" : [
                0.06539616733789444,
                0.06538878381252289,
                0.09908745437860489
            ],
            "min" : [
                -0.06537651270627975,
                -0.06537968665361404,
                -0.012953265570104122
            ],
            "type" : "VEC3"
        },
        {
            "bufferView" : 10,
            "componentType" : 5126,
            "count" : 33391,
            "type" : "VEC3"
        },
        {
            "bufferView" : 11,
            "componentType" : 5126,
            "count" : 33391,
            "type" : "VEC2"
        },
        {
            "bufferView" : 12,
            "componentType" : 5123,
            "count" : 194076,
            "type" : "SCALAR"
        },
        {
            "bufferView" : 13,
            "componentType" : 5126,
            "count" : 219,
            "max" : [
                0.05999999865889549,
                0.05999999865889549,
                0
            ],
            "min" : [
                -0.05999999865889549,
                -0.05999999865889549,
                -0.10400000214576721
            ],
            "type" : "VEC3"
        },
        {
            "bufferView" : 14,
            "componentType" : 5126,
            "count" : 219,
            "type" : "VEC3"
        },
        {
            "bufferView" : 15,
            "componentType" : 5126,
            "count" : 219,
            "type" : "VEC2"
        },
        {
            "bufferView" : 16,
            "componentType" : 5123,
            "count" : 1056,
            "type" : "SCALAR"
        },
        {
            "bufferView" : 17,
            "componentType" : 5126,
            "count" : 371,
            "max" : [
                0.08500000089406967,
                0.08453436195850372,
                -0.0005358983762562275
            ],
            "min" : [
                -0.08500000089406967,
                -0.08453436195850372,
                -0.4000000059604645
            ],
            "type" : "VEC3"
        },
        {
            "bufferView" : 18,
            "componentType" : 5126,
            "count" : 371,
            "type" : "VEC3"
        },
        {
            "bufferView" : 19,
            "componentType" : 5126,
            "count" : 371,
            "type" : "VEC2"
        },
        {
            "bufferView" : 20,
            "componentType" : 5123,
            "count" : 1890,
            "type" : "SCALAR"
        },
        {
            "bufferView" : 21,
            "componentType" : 5126,
            "count" : 280,
            "max" : [
                0.07900000363588333,
                0.07856722921133041,
                -0.02158256433904171
            ],
            "min" : [
                -0.07900000363588333,
                -0.07856722921133041,
                -0.4099999964237213
            ],
            "type" : "VEC3"
        },
        {
            "bufferView" : 22,
            "componentType" : 5126,
            "count" : 280,
            "type" : "VEC3"
        },
        {
            "bufferView" : 23,
            "componentType" : 5126,
            "count" : 280,
            "type" : "VEC2"
        },
        {
            "bufferView" : 24,
            "componentType" : 5123,
            "count" : 1350,
            "type" : "SCALAR"
        },
        {
            "bufferView" : 25,
            "componentType" : 5126,
            "count" : 155,
            "max" : [
                0.08699999749660492,
                0.08652340620756149,
                0
            ],
            "min" : [
                -0.08699999749660492,
                -0.08652340620756149,
                -0.38999998569488525
            ],
            "type" : "VEC3"
        },
        {
            "bufferView" : 26,
            "componentType" : 5126,
            "count" : 155,
            "type" : "VEC3"
        },
        {
            "bufferView" : 27,
            "componentType" : 5126,
            "count" : 155,
            "type" : "VEC2"
        }
    ],
    "bufferViews" : [
        {
            "buffer" : 0,
            "byteLength" : 4812,
            "byteOffset" : 0
        },
        {
            "buffer" : 0,
            "byteLength" : 4812,
            "byteOffset" : 4812
        },
        {
            "buffer" : 0,
            "byteLength" : 3208,
            "byteOffset" : 9624
        },
        {
            "buffer" : 0,
            "byteLength" : 3960,
            "byteOffset" : 12832
        },
        {
            "buffer" : 0,
            "byteLength" : 1860,
            "byteOffset" : 16792
        },
        {
            "buffer" : 0,
            "byteLength" : 1860,
            "byteOffset" : 18652
        },
        {
            "buffer" : 0,
            "byteLength" : 1240,
            "byteOffset" : 20512
        },
        {
            "buffer" : 0,
            "byteLength" : 1440,
            "byteOffset" : 21752
        },
        {
            "buffer" : 0,
            "byteLength" : 128540,
            "byteOffset" : 23192
        },
        {
            "buffer" : 0,
            "byteLength" : 400692,
            "byteOffset" : 151732
        },
        {
            "buffer" : 0,
            "byteLength" : 400692,
            "byteOffset" : 552424
        },
        {
            "buffer" : 0,
            "byteLength" : 267128,
            "byteOffset" : 953116
        },
        {
            "buffer" : 0,
            "byteLength" : 388152,
            "byteOffset" : 1220244
        },
        {
            "buffer" : 0,
            "byteLength" : 2628,
            "byteOffset" : 1608396
        },
        {
            "buffer" : 0,
            "byteLength" : 2628,
            "byteOffset" : 1611024
        },
        {
            "buffer" : 0,
            "byteLength" : 1752,
            "byteOffset" : 1613652
        },
        {
            "buffer" : 0,
            "byteLength" : 2112,
            "byteOffset" : 1615404
        },
        {
            "buffer" : 0,
            "byteLength" : 4452,
            "byteOffset" : 1617516
        },
        {
            "buffer" : 0,
            "byteLength" : 4452,
            "byteOffset" : 1621968
        },
        {
            "buffer" : 0,
            "byteLength" : 2968,
            "byteOffset" : 1626420
        },
        {
            "buffer" : 0,
            "byteLength" : 3780,
            "byteOffset" : 1629388
        },
        {
            "buffer" : 0,
            "byteLength" : 3360,
            "byteOffset" : 1633168
        },
        {
            "buffer" : 0,
            "byteLength" : 3360,
            "byteOffset" : 1636528
        },
        {
            "buffer" : 0,
            "byteLength" : 2240,
            "byteOffset" : 1639888
        },
        {
            "buffer" : 0,
            "byteLength" : 2700,
            "byteOffset" : 1642128
        },
        {
            "buffer" : 0,
            "byteLength" : 1860,
            "byteOffset" : 1644828
        },
        {
            "buffer" : 0,
            "byteLength" : 1860,
            "byteOffset" : 1646688
        },
        {
            "buffer" : 0,
            "byteLength" : 1240,
            "byteOffset" : 1648548
        },
        {
            "buffer" : 0,
            "byteLength" : 86904,
            "byteOffset" : 1649788
        }
    ],
    "samplers" : [
        {
            "magFilter" : 9729,
            "minFilter" : 9987
        }
    ],
    "buffers" : [
        {
            "byteLength" : 1736692,
            "uri" : "data:application/octet-stream;base64,"
        }
    ]
}
