{
	"materials":[{
		"pbrMetallicRoughness":{
			"baseColorFactor":[1.0,
			0.20999999999999997,
			0.4864999999999997,
			1.0],
			"metallicFactor":0.0,
			"roughnessFactor":0.4
		},
		"emissiveFactor":[0.0,
		0.0,
		0.0],
		"alphaMode":"OPAQUE",
		"doubleSided":true,
		"name":"CaseMain"
	},
	{
		"pbrMetallicRoughness":{
			"baseColorTexture":{
				"index":0
			},
			"baseColorFactor":[1.0,
			1.0,
			1.0,
			1.0],
			"metallicFactor":0.0,
			"roughnessFactor":0.5
		},
		"emissiveFactor":[0.0,
		0.0,
		0.0],
		"alphaMode":"BLEND",
		"doubleSided":true,
		"name":"bottom_print"
	},
	{
		"pbrMetallicRoughness":{
			"baseColorFactor":[0.8,
			0.8,
			0.8,
			1.0],
			"metallicFactor":1.0,
			"roughnessFactor":0.1
		},
		"emissiveFactor":[0.0,
		0.0,
		0.0],
		"alphaMode":"OPAQUE",
		"doubleSided":true,
		"name":"Mat.1"
	},
	{
		"pbrMetallicRoughness":{
			"baseColorTexture":{
				"index":1
			},
			"baseColorFactor":[1.0,
			1.0,
			1.0,
			1.0],
			"metallicFactor":0.0,
			"roughnessFactor":0.5
		},
		"emissiveFactor":[0.0,
		0.0,
		0.0],
		"alphaMode":"BLEND",
		"doubleSided":true,
		"name":"MirrorPrint"
	},
	{
		"pbrMetallicRoughness":{
			"baseColorTexture":{
				"index":2
			},
			"baseColorFactor":[1.0,
			1.0,
			1.0,
			1.0],
			"metallicFactor":0.0,
			"roughnessFactor":0.5
		},
		"emissiveFactor":[0.0,
		0.0,
		0.0],
		"alphaMode":"BLEND",
		"doubleSided":true,
		"name":"top_print"
	}],
	"nodes":[{
		"name":"Null",
		"translation":[0.0,
		0.0,
		0.0],
		"rotation":[0.0,
		0.0,
		0.0,
		-1.0],
		"scale":[0.10000000149011612,
		0.10000000149011612,
		0.10000000149011612],
		"children":[1,
		2,
		3,
		4,
		5,
		6,
		7]
	},
	{
		"name":"Top",
		"translation":[0.0,
		0.10080303251743317,
		-0.28660473227500918],
		"rotation":[0.9235740303993225,
		-3.3074889584826719e-17,
		3.3074889584826719e-17,
		-0.38342010974884035],
		"scale":[1.0,
		1.0,
		1.0],
		"children":[8,
		9,
		10,
		11]
	},
	{
		"name":"Mid",
		"mesh":0,
		"translation":[0.0,
		0.009538169950246811,
		0.0],
		"rotation":[0.0,
		0.0,
		0.0,
		-1.0],
		"scale":[1.0,
		1.0,
		1.0]
	},
	{
		"name":"BottomPrint",
		"mesh":1,
		"translation":[0.0,
		-0.0031117370817810299,
		0.2645699083805084],
		"rotation":[0.0,
		0.0,
		1.0,
		-6.123234262925839e-17],
		"scale":[0.05999999865889549,
		0.10000000149011612,
		0.05999999865889549]
	},
	{
		"name":"BottomHalf",
		"mesh":2
	},
	{
		"name":"Joints",
		"mesh":3
	},
	{
		"name":"antenna",
		"mesh":4,
		"translation":[0.151150643825531,
		0.03784985467791557,
		-0.31408095359802248],
		"rotation":[0.0,
		0.0,
		0.0,
		-1.0],
		"scale":[1.0,
		1.0,
		1.0]
	},
	{
		"name":"BottomMirror",
		"mesh":5,
		"translation":[0.0,
		0.06599714607000351,
		0.0],
		"rotation":[0.0,
		0.0,
		0.0,
		-1.0],
		"scale":[1.0,
		1.0,
		1.0]
	},
	{
		"name":"pivot",
		"mesh":6,
		"translation":[0.0013194119092077017,
		0.0,
		0.0],
		"rotation":[-0.7071067690849304,
		0.0,
		0.0,
		-0.7071067690849304],
		"scale":[1.0,
		1.0,
		1.0]
	},
	{
		"name":"MirrorTop",
		"children":[12],
		"mesh":7,
		"translation":[-1.6761104503880347e-17,
		-0.028721943497657777,
		0.30245155096054079],
		"rotation":[-0.7071067690849304,
		0.0,
		0.0,
		-0.7071067690849304],
		"scale":[1.0,
		1.0,
		1.0]
	},
	{
		"name":"MirrorPrint",
		"mesh":8,
		"translation":[-1.6673142117541458e-17,
		-0.030158480629324914,
		0.30245155096054079],
		"rotation":[-0.7071067690849304,
		0.0,
		0.0,
		-0.7071067690849304],
		"scale":[1.0,
		1.0,
		1.0]
	},
	{
		"name":"Volume Mesher_remesh",
		"children":[13],
		"mesh":9,
		"translation":[-8.874685536384688e-33,
		-0.05921837314963341,
		0.0],
		"rotation":[-0.7071067690849304,
		0.0,
		0.0,
		-0.7071067690849304],
		"scale":[1.0,
		1.0,
		1.0]
	},
	{
		"name":"TopPrint",
		"mesh":10,
		"translation":[1.6761104503880347e-17,
		-0.008623505011200905,
		-0.06216715648770332],
		"rotation":[0.7071067690849304,
		0.0,
		0.0,
		-0.7071067690849304],
		"scale":[4.400000095367432,
		1.0,
		4.199999809265137]
	},
	{
		"name":"clip",
		"mesh":11,
		"translation":[1.2844204642721406e-19,
		0.6538370847702026,
		-0.018475815653800966],
		"rotation":[-5.551115123125783e-17,
		0.0,
		0.0,
		-1.0],
		"scale":[1.0,
		1.0,
		1.0]
	}],
	"asset":{
		"version":"2.0",
		"generator":"Maxon Cinema 4D 2023.2.0 (#200000219)"
	},
	"scenes":[{
		"nodes":[0]
	}],
	"meshes":[{
		"name":"Mid",
		"primitives":[{
			"attributes":{
				"POSITION":3,
				"NORMAL":4,
				"TEXCOORD_0":5
			},
			"indices":2,
			"material":0
		}]
	},
	{
		"name":"BottomPrint",
		"primitives":[{
			"attributes":{
				"POSITION":7,
				"NORMAL":8,
				"TEXCOORD_0":9
			},
			"indices":6,
			"material":1
		}]
	},
	{
		"name":"BottomHalf",
		"primitives":[{
			"attributes":{
				"POSITION":11,
				"NORMAL":12,
				"TEXCOORD_0":13
			},
			"indices":10,
			"material":0
		}]
	},
	{
		"name":"Joints",
		"primitives":[{
			"attributes":{
				"POSITION":15,
				"NORMAL":16,
				"TEXCOORD_0":17
			},
			"indices":14,
			"material":0
		}]
	},
	{
		"name":"antenna",
		"primitives":[{
			"attributes":{
				"POSITION":19,
				"NORMAL":20,
				"TEXCOORD_0":21
			},
			"indices":18,
			"material":0
		}]
	},
	{
		"name":"BottomMirror",
		"primitives":[{
			"attributes":{
				"POSITION":23,
				"NORMAL":24,
				"TEXCOORD_0":25
			},
			"indices":22,
			"material":2
		}]
	},
	{
		"name":"pivot",
		"primitives":[{
			"attributes":{
				"POSITION":27,
				"NORMAL":28,
				"TEXCOORD_0":29
			},
			"indices":26,
			"material":2
		}]
	},
	{
		"name":"MirrorTop",
		"primitives":[{
			"attributes":{
				"POSITION":31,
				"NORMAL":32,
				"TEXCOORD_0":33
			},
			"indices":30,
			"material":2
		}]
	},
	{
		"name":"MirrorPrint",
		"primitives":[{
			"attributes":{
				"POSITION":35,
				"NORMAL":36,
				"TEXCOORD_0":37
			},
			"indices":34,
			"material":3
		}]
	},
	{
		"name":"Volume Mesher_remesh",
		"primitives":[{
			"attributes":{
				"POSITION":39,
				"NORMAL":40,
				"TEXCOORD_0":41
			},
			"indices":38,
			"material":0
		}]
	},
	{
		"name":"TopPrint",
		"primitives":[{
			"attributes":{
				"POSITION":43,
				"NORMAL":44,
				"TEXCOORD_0":45
			},
			"indices":42,
			"material":4
		}]
	},
	{
		"name":"clip",
		"primitives":[{
			"attributes":{
				"POSITION":47,
				"NORMAL":48,
				"TEXCOORD_0":49
			},
			"indices":46,
			"material":0
		}]
	}],
	"accessors":[{
		"bufferView":0,
		"type":"SCALAR",
		"componentType":5126,
		"count":91,
		"byteOffset":0,
		"min":[0.0],
		"max":[3.0]
	},
	{
		"bufferView":0,
		"type":"VEC4",
		"componentType":5126,
		"count":91,
		"byteOffset":364,
		"min":[0.0,
		-3.313870491472396e-17,
		0.0,
		-1.0],
		"max":[0.9238795042037964,
		0.0,
		3.313870491472396e-17,
		-0.3826834261417389]
	},
	{
		"bufferView":1,
		"type":"SCALAR",
		"componentType":5123,
		"count":6516,
		"byteOffset":0,
		"min":[0],
		"max":[1818]
	},
	{
		"bufferView":2,
		"type":"VEC3",
		"componentType":5126,
		"count":1819,
		"byteOffset":0,
		"min":[-0.19294779002666474,
		0.02008259855210781,
		-0.32188284397125246],
		"max":[0.19294779002666474,
		0.058559659868478778,
		0.4782147705554962]
	},
	{
		"bufferView":2,
		"type":"VEC3",
		"componentType":5126,
		"count":1819,
		"byteOffset":12,
		"min":[-1.0,
		-1.0,
		-1.0],
		"max":[1.0,
		1.0,
		1.0]
	},
	{
		"bufferView":2,
		"type":"VEC2",
		"componentType":5126,
		"count":1819,
		"byteOffset":24,
		"min":[0.0,
		0.0],
		"max":[1.0,
		1.0]
	},
	{
		"bufferView":3,
		"type":"SCALAR",
		"componentType":5123,
		"count":600,
		"byteOffset":0,
		"min":[0],
		"max":[120]
	},
	{
		"bufferView":4,
		"type":"VEC3",
		"componentType":5126,
		"count":121,
		"byteOffset":0,
		"min":[-1.7599999904632569,
		0.0,
		-0.925000011920929],
		"max":[1.7600001096725464,
		0.0,
		0.925000011920929]
	},
	{
		"bufferView":4,
		"type":"VEC3",
		"componentType":5126,
		"count":121,
		"byteOffset":12,
		"min":[0.0,
		1.0,
		0.0],
		"max":[0.0,
		1.0,
		0.0]
	},
	{
		"bufferView":4,
		"type":"VEC2",
		"componentType":5126,
		"count":121,
		"byteOffset":24,
		"min":[0.0,
		0.0],
		"max":[1.0,
		1.0]
	},
	{
		"bufferView":5,
		"type":"SCALAR",
		"componentType":5123,
		"count":3012,
		"byteOffset":0,
		"min":[0],
		"max":[838]
	},
	{
		"bufferView":6,
		"type":"VEC3",
		"componentType":5126,
		"count":839,
		"byteOffset":0,
		"min":[-0.19294779002666474,
		0.0,
		-0.32255464792251589],
		"max":[0.19294779002666474,
		0.060263678431510928,
		0.4782361090183258]
	},
	{
		"bufferView":6,
		"type":"VEC3",
		"componentType":5126,
		"count":839,
		"byteOffset":12,
		"min":[-0.9832747578620911,
		-0.9989296197891235,
		-0.9832747578620911],
		"max":[0.9832747578620911,
		0.9990119338035584,
		0.9832747578620911]
	},
	{
		"bufferView":6,
		"type":"VEC2",
		"componentType":5126,
		"count":839,
		"byteOffset":24,
		"min":[-0.002497531473636627,
		-0.002495274879038334],
		"max":[1.0,
		1.002497673034668]
	},
	{
		"bufferView":7,
		"type":"SCALAR",
		"componentType":5123,
		"count":66996,
		"byteOffset":0,
		"min":[0],
		"max":[11165]
	},
	{
		"bufferView":8,
		"type":"VEC3",
		"componentType":5126,
		"count":11166,
		"byteOffset":0,
		"min":[-0.19241414964199067,
		0.02943848818540573,
		-0.32060474157333376],
		"max":[0.19241414964199067,
		0.13355302810668946,
		-0.25260475277900698]
	},
	{
		"bufferView":8,
		"type":"VEC3",
		"componentType":5126,
		"count":11166,
		"byteOffset":12,
		"min":[-1.0,
		-1.0,
		-1.0],
		"max":[1.0,
		1.0,
		1.0]
	},
	{
		"bufferView":8,
		"type":"VEC2",
		"componentType":5126,
		"count":11166,
		"byteOffset":24,
		"min":[0.008507313206791878,
		0.010804375633597374],
		"max":[0.991534948348999,
		0.9891955852508545]
	},
	{
		"bufferView":9,
		"type":"SCALAR",
		"componentType":5123,
		"count":1980,
		"byteOffset":0,
		"min":[0],
		"max":[400]
	},
	{
		"bufferView":10,
		"type":"VEC3",
		"componentType":5126,
		"count":401,
		"byteOffset":0,
		"min":[-0.03682714328169823,
		-0.03662540018558502,
		-0.1420000046491623],
		"max":[0.03682714328169823,
		0.03662540018558502,
		0.0]
	},
	{
		"bufferView":10,
		"type":"VEC3",
		"componentType":5126,
		"count":401,
		"byteOffset":12,
		"min":[-0.999369740486145,
		-0.9938974380493164,
		-1.0],
		"max":[0.999369740486145,
		0.9938974380493164,
		1.0]
	},
	{
		"bufferView":10,
		"type":"VEC2",
		"componentType":5126,
		"count":401,
		"byteOffset":24,
		"min":[0.0,
		0.0],
		"max":[1.0,
		1.0]
	},
	{
		"bufferView":11,
		"type":"SCALAR",
		"componentType":5123,
		"count":90,
		"byteOffset":0,
		"min":[0],
		"max":[31]
	},
	{
		"bufferView":12,
		"type":"VEC3",
		"componentType":5126,
		"count":32,
		"byteOffset":0,
		"min":[-0.16823211312294007,
		0.0,
		-0.2417931854724884],
		"max":[0.16823211312294007,
		0.0,
		0.32780885696411135]
	},
	{
		"bufferView":12,
		"type":"VEC3",
		"componentType":5126,
		"count":32,
		"byteOffset":12,
		"min":[0.0,
		1.0,
		0.0],
		"max":[0.0,
		1.0,
		0.0]
	},
	{
		"bufferView":12,
		"type":"VEC2",
		"componentType":5126,
		"count":32,
		"byteOffset":24,
		"min":[0.0,
		0.0],
		"max":[0.5907005071640015,
		1.0]
	},
	{
		"bufferView":13,
		"type":"SCALAR",
		"componentType":5123,
		"count":960,
		"byteOffset":0,
		"min":[0],
		"max":[237]
	},
	{
		"bufferView":14,
		"type":"VEC3",
		"componentType":5126,
		"count":238,
		"byteOffset":0,
		"min":[-0.16878271102905274,
		-0.006000000052154064,
		-0.006000000052154064],
		"max":[0.16878271102905274,
		0.006000000052154064,
		0.006000000052154064]
	},
	{
		"bufferView":14,
		"type":"VEC3",
		"componentType":5126,
		"count":238,
		"byteOffset":12,
		"min":[-1.0,
		-1.0,
		-1.0],
		"max":[1.0,
		1.0,
		1.0]
	},
	{
		"bufferView":14,
		"type":"VEC2",
		"componentType":5126,
		"count":238,
		"byteOffset":24,
		"min":[0.0,
		0.0],
		"max":[1.0,
		1.0]
	},
	{
		"bufferView":15,
		"type":"SCALAR",
		"componentType":5123,
		"count":90,
		"byteOffset":0,
		"min":[0],
		"max":[31]
	},
	{
		"bufferView":16,
		"type":"VEC3",
		"componentType":5126,
		"count":32,
		"byteOffset":0,
		"min":[-0.16823211312294007,
		-0.2417931854724884,
		-2.35943111952829e-17],
		"max":[0.16823211312294007,
		0.3167392313480377,
		6.066414234032837e-17]
	},
	{
		"bufferView":16,
		"type":"VEC3",
		"componentType":5126,
		"count":32,
		"byteOffset":12,
		"min":[0.0,
		0.0,
		-1.0],
		"max":[0.0,
		0.0,
		-1.0]
	},
	{
		"bufferView":16,
		"type":"VEC2",
		"componentType":5126,
		"count":32,
		"byteOffset":24,
		"min":[0.0,
		0.0],
		"max":[0.602407693862915,
		1.0]
	},
	{
		"bufferView":17,
		"type":"SCALAR",
		"componentType":5123,
		"count":90,
		"byteOffset":0,
		"min":[0],
		"max":[31]
	},
	{
		"bufferView":18,
		"type":"VEC3",
		"componentType":5126,
		"count":32,
		"byteOffset":0,
		"min":[-0.16823211312294007,
		-0.2417931854724884,
		-2.35943111952829e-17],
		"max":[0.16823211312294007,
		0.3167392313480377,
		6.066414234032837e-17]
	},
	{
		"bufferView":18,
		"type":"VEC3",
		"componentType":5126,
		"count":32,
		"byteOffset":12,
		"min":[0.0,
		0.0,
		-1.0],
		"max":[0.0,
		0.0,
		-1.0]
	},
	{
		"bufferView":18,
		"type":"VEC2",
		"componentType":5126,
		"count":32,
		"byteOffset":24,
		"min":[0.13936853408813477,
		0.110772505402565],
		"max":[0.8566281199455261,
		0.8606666326522827]
	},
	{
		"bufferView":19,
		"type":"SCALAR",
		"componentType":5123,
		"count":86244,
		"byteOffset":0,
		"min":[0],
		"max":[14375]
	},
	{
		"bufferView":20,
		"type":"VEC3",
		"componentType":5126,
		"count":14376,
		"byteOffset":0,
		"min":[-0.193154975771904,
		-0.03222527354955673,
		-0.09200606495141983],
		"max":[0.193154975771904,
		0.6818881034851074,
		-0.026157988235354425]
	},
	{
		"bufferView":20,
		"type":"VEC3",
		"componentType":5126,
		"count":14376,
		"byteOffset":12,
		"min":[-1.0,
		-1.0,
		-1.0],
		"max":[1.0,
		0.9999996423721314,
		1.0]
	},
	{
		"bufferView":20,
		"type":"VEC2",
		"componentType":5126,
		"count":14376,
		"byteOffset":24,
		"min":[0.0037014586851000787,
		0.09545005857944489],
		"max":[0.9962985515594482,
		0.8610514402389526]
	},
	{
		"bufferView":21,
		"type":"SCALAR",
		"componentType":5123,
		"count":6,
		"byteOffset":0,
		"min":[0],
		"max":[3]
	},
	{
		"bufferView":22,
		"type":"VEC3",
		"componentType":5126,
		"count":4,
		"byteOffset":0,
		"min":[-0.03754999861121178,
		0.0,
		-0.059050001204013827],
		"max":[0.03754999861121178,
		0.0,
		0.059050001204013827]
	},
	{
		"bufferView":22,
		"type":"VEC3",
		"componentType":5126,
		"count":4,
		"byteOffset":12,
		"min":[0.0,
		1.0,
		0.0],
		"max":[0.0,
		1.0,
		0.0]
	},
	{
		"bufferView":22,
		"type":"VEC2",
		"componentType":5126,
		"count":4,
		"byteOffset":24,
		"min":[0.0,
		0.0],
		"max":[1.0,
		1.0]
	},
	{
		"bufferView":23,
		"type":"SCALAR",
		"componentType":5123,
		"count":1224,
		"byteOffset":0,
		"min":[0],
		"max":[331]
	},
	{
		"bufferView":24,
		"type":"VEC3",
		"componentType":5126,
		"count":332,
		"byteOffset":0,
		"min":[-0.019465260207653047,
		-0.007064709439873695,
		-0.013484621420502663],
		"max":[0.019465260207653047,
		0.004138409160077572,
		0.006616512779146433]
	},
	{
		"bufferView":24,
		"type":"VEC3",
		"componentType":5126,
		"count":332,
		"byteOffset":12,
		"min":[-0.9832747578620911,
		-0.9832747578620911,
		-0.9865118861198425],
		"max":[0.9832747578620911,
		0.9832747578620911,
		0.9865118861198425]
	},
	{
		"bufferView":24,
		"type":"VEC2",
		"componentType":5126,
		"count":332,
		"byteOffset":24,
		"min":[0.0,
		0.0],
		"max":[1.0,
		1.0]
	}],
	"bufferViews":[{
		"buffer":0,
		"byteOffset":0,
		"byteLength":1820
	},
	{
		"target":34963,
		"buffer":1,
		"byteOffset":0,
		"byteLength":13032
	},
	{
		"target":34962,
		"buffer":1,
		"byteOffset":13032,
		"byteLength":58208,
		"byteStride":32
	},
	{
		"target":34963,
		"buffer":2,
		"byteOffset":0,
		"byteLength":1200
	},
	{
		"target":34962,
		"buffer":2,
		"byteOffset":1200,
		"byteLength":3872,
		"byteStride":32
	},
	{
		"target":34963,
		"buffer":3,
		"byteOffset":0,
		"byteLength":6024
	},
	{
		"target":34962,
		"buffer":3,
		"byteOffset":6024,
		"byteLength":26848,
		"byteStride":32
	},
	{
		"target":34963,
		"buffer":4,
		"byteOffset":0,
		"byteLength":133992
	},
	{
		"target":34962,
		"buffer":4,
		"byteOffset":133992,
		"byteLength":357312,
		"byteStride":32
	},
	{
		"target":34963,
		"buffer":5,
		"byteOffset":0,
		"byteLength":3960
	},
	{
		"target":34962,
		"buffer":5,
		"byteOffset":3960,
		"byteLength":12832,
		"byteStride":32
	},
	{
		"target":34963,
		"buffer":6,
		"byteOffset":0,
		"byteLength":180
	},
	{
		"target":34962,
		"buffer":6,
		"byteOffset":180,
		"byteLength":1024,
		"byteStride":32
	},
	{
		"target":34963,
		"buffer":7,
		"byteOffset":0,
		"byteLength":1920
	},
	{
		"target":34962,
		"buffer":7,
		"byteOffset":1920,
		"byteLength":7616,
		"byteStride":32
	},
	{
		"target":34963,
		"buffer":8,
		"byteOffset":0,
		"byteLength":180
	},
	{
		"target":34962,
		"buffer":8,
		"byteOffset":180,
		"byteLength":1024,
		"byteStride":32
	},
	{
		"target":34963,
		"buffer":9,
		"byteOffset":0,
		"byteLength":180
	},
	{
		"target":34962,
		"buffer":9,
		"byteOffset":180,
		"byteLength":1024,
		"byteStride":32
	},
	{
		"target":34963,
		"buffer":10,
		"byteOffset":0,
		"byteLength":172488
	},
	{
		"target":34962,
		"buffer":10,
		"byteOffset":172488,
		"byteLength":460032,
		"byteStride":32
	},
	{
		"target":34963,
		"buffer":11,
		"byteOffset":0,
		"byteLength":12
	},
	{
		"target":34962,
		"buffer":11,
		"byteOffset":12,
		"byteLength":128,
		"byteStride":32
	},
	{
		"target":34963,
		"buffer":12,
		"byteOffset":0,
		"byteLength":2448
	},
	{
		"target":34962,
		"buffer":12,
		"byteOffset":2448,
		"byteLength":10624,
		"byteStride":32
	}],
	"buffers":[{
		"uri":"data:application/octet-stream;base64,",
		"byteLength":1820
	},
	{
		"uri":"data:application/octet-stream;base64,",
		"byteLength":71240
	},
	{
		"uri":"data:application/octet-stream;base64,",
		"byteLength":5072
	},
	{
		"uri":"data:application/octet-stream;base64,",
		"byteLength":32872
	},
	{
		"uri":"data:application/octet-stream;base64,",
		"byteLength":491304
	},
	{
		"uri":"data:application/octet-stream;base64,",
		"byteLength":16792
	},
	{
		"uri":"data:application/octet-stream;base64,",
		"byteLength":1204
	},
	{
		"uri":"data:application/octet-stream;base64,",
		"byteLength":9536
	},
	{
		"uri":"data:application/octet-stream;base64,",
		"byteLength":1204
	},
	{
		"uri":"data:application/octet-stream;base64,",
		"byteLength":1204
	},
	{
		"uri":"data:application/octet-stream;base64,",
		"byteLength":632520
	},
	{
		"uri":"data:application/octet-stream;base64,",
		"byteLength":140
	},
	{
		"uri":"data:application/octet-stream;base64,",
		"byteLength":13072
	}],
	"images":[{
		"uri":"data:image/png;base64,"
	},
	{
		"uri":"data:image/png;base64,"
	},
	{
		"uri":"data:image/png;base64,"
	}],
	"samplers":[{
		"magFilter":9729,
		"minFilter":9729,
		"wrapS":10497,
		"wrapT":10497
	},
	{
		"magFilter":9729,
		"minFilter":9729,
		"wrapS":10497,
		"wrapT":10497
	},
	{
		"magFilter":9729,
		"minFilter":9729,
		"wrapS":10497,
		"wrapT":10497
	}],
	"textures":[{
		"sampler":0,
		"source":0
	},
	{
		"sampler":1,
		"source":1
	},
	{
		"sampler":2,
		"source":2
	}],
	"animations":[{
		"samplers":[{
			"input":0,
			"interpolation":"LINEAR",
			"output":1
		}],
		"channels":[{
			"sampler":0,
			"target":{
				"node":1,
				"path":"rotation"
			}
		}]
	}]
}