{
    "asset" : {
        "generator" : "Khronos glTF Blender I/O v1.6.16",
        "version" : "2.0"
    },
    "scene" : 0,
    "scenes" : [
        {
            "name" : "Scene",
            "nodes" : [
                14
            ]
        }
    ],
    "nodes" : [
        {
            "mesh" : 0,
            "name" : "label",
            "rotation" : [
                0,
                0,
                0.9954296350479126,
                0.09549829363822937
            ],
            "translation" : [
                0,
                0,
                -0.5647221803665161
            ]
        },
        {
            "mesh" : 1,
            "name" : "bottom",
            "translation" : [
                0,
                0,
                -0.20104537904262543
            ]
        },
        {
            "mesh" : 2,
            "name" : "cap",
            "translation" : [
                0,
                0,
                -0.96100252866745
            ]
        },
        {
            "mesh" : 3,
            "name" : "Mid",
            "translation" : [
                0,
                0,
                -0.5808314085006714
            ]
        },
        {
            "mesh" : 4,
            "name" : "tip",
            "translation" : [
                0,
                0,
                -1.0113104581832886
            ]
        },
        {
            "children" : [
                1,
                2,
                3,
                4
            ],
            "name" : "pencil"
        },
        {
            "children" : [
                0,
                5
            ],
            "name" : "BluePencil",
            "rotation" : [
                0.7071068286895752,
                0,
                0,
                0.7071068286895752
            ],
            "translation" : [
                0.0748870000243187,
                0,
                0
            ]
        },
        {
            "mesh" : 5,
            "name" : "label_1",
            "rotation" : [
                0,
                0,
                0.9954296350479126,
                0.09549829363822937
            ],
            "translation" : [
                0,
                0,
                -0.5647221803665161
            ]
        },
        {
            "mesh" : 6,
            "name" : "bottom_1",
            "translation" : [
                0,
                0,
                -0.20104537904262543
            ]
        },
        {
            "mesh" : 7,
            "name" : "cap_1",
            "translation" : [
                0,
                0,
                -0.96100252866745
            ]
        },
        {
            "mesh" : 8,
            "name" : "Mid_1",
            "translation" : [
                0,
                0,
                -0.5808314085006714
            ]
        },
        {
            "mesh" : 9,
            "name" : "tip_1",
            "translation" : [
                0,
                0,
                -1.0113104581832886
            ]
        },
        {
            "children" : [
                8,
                9,
                10,
                11
            ],
            "name" : "pencil_1"
        },
        {
            "children" : [
                7,
                12
            ],
            "name" : "PinkPencil",
            "rotation" : [
                0.7071068286895752,
                0,
                0,
                0.7071068286895752
            ],
            "translation" : [
                -0.07488742470741272,
                0,
                0
            ]
        },
        {
            "children" : [
                6,
                13
            ],
            "name" : "3fec1756-040e-4309-8b08-701af26316ea",
            "scale" : [
                0.10000000149011612,
                0.10000000149011612,
                0.10000000149011612
            ]
        }
    ],
    "materials" : [
        {
            "alphaCutoff" : 0.5,
            "alphaMode" : "MASK",
            "doubleSided" : true,
            "name" : "bluelabel",
            "pbrMetallicRoughness" : {
                "baseColorTexture" : {
                    "index" : 0
                },
                "metallicFactor" : 0,
                "roughnessFactor" : 0.5
            }
        },
        {
            "doubleSided" : true,
            "name" : "Blue",
            "pbrMetallicRoughness" : {
                "baseColorFactor" : [
                    0.03189603239297867,
                    0.4910208582878113,
                    1,
                    1
                ],
                "metallicFactor" : 0.3199999928474426,
                "roughnessFactor" : 0.4699999988079071
            }
        },
        {
            "alphaMode" : "BLEND",
            "doubleSided" : true,
            "name" : "pinklabel",
            "pbrMetallicRoughness" : {
                "baseColorTexture" : {
                    "index" : 1
                },
                "metallicFactor" : 0,
                "roughnessFactor" : 0.5
            }
        },
        {
            "doubleSided" : true,
            "name" : "Pink",
            "pbrMetallicRoughness" : {
                "baseColorFactor" : [
                    0.7835378050804138,
                    0.061246052384376526,
                    0.15592646598815918,
                    1
                ],
                "metallicFactor" : 0.3199999928474426,
                "roughnessFactor" : 0.4699999988079071
            }
        }
    ],
    "meshes" : [
        {
            "name" : "Mesh_4",
            "primitives" : [
                {
                    "attributes" : {
                        "POSITION" : 0,
                        "NORMAL" : 1,
                        "TEXCOORD_0" : 2
                    },
                    "indices" : 3,
                    "material" : 0
                }
            ]
        },
        {
            "name" : "Mesh_3",
            "primitives" : [
                {
                    "attributes" : {
                        "POSITION" : 4,
                        "NORMAL" : 5,
                        "TEXCOORD_0" : 6
                    },
                    "indices" : 7,
                    "material" : 1
                }
            ]
        },
        {
            "name" : "Mesh_2",
            "primitives" : [
                {
                    "attributes" : {
                        "POSITION" : 8,
                        "NORMAL" : 9,
                        "TEXCOORD_0" : 10
                    },
                    "indices" : 7,
                    "material" : 1
                }
            ]
        },
        {
            "name" : "Mesh_0",
            "primitives" : [
                {
                    "attributes" : {
                        "POSITION" : 11,
                        "NORMAL" : 12,
                        "TEXCOORD_0" : 13
                    },
                    "indices" : 7,
                    "material" : 1
                }
            ]
        },
        {
            "name" : "Mesh_1",
            "primitives" : [
                {
                    "attributes" : {
                        "POSITION" : 14,
                        "NORMAL" : 15,
                        "TEXCOORD_0" : 16
                    },
                    "indices" : 17,
                    "material" : 1
                }
            ]
        },
        {
            "name" : "Mesh_9",
            "primitives" : [
                {
                    "attributes" : {
                        "POSITION" : 18,
                        "NORMAL" : 19,
                        "TEXCOORD_0" : 20
                    },
                    "indices" : 3,
                    "material" : 2
                }
            ]
        },
        {
            "name" : "Mesh_8",
            "primitives" : [
                {
                    "attributes" : {
                        "POSITION" : 21,
                        "NORMAL" : 22,
                        "TEXCOORD_0" : 23
                    },
                    "indices" : 7,
                    "material" : 3
                }
            ]
        },
        {
            "name" : "Mesh_7",
            "primitives" : [
                {
                    "attributes" : {
                        "POSITION" : 24,
                        "NORMAL" : 25,
                        "TEXCOORD_0" : 26
                    },
                    "indices" : 7,
                    "material" : 3
                }
            ]
        },
        {
            "name" : "Mesh_5",
            "primitives" : [
                {
                    "attributes" : {
                        "POSITION" : 27,
                        "NORMAL" : 28,
                        "TEXCOORD_0" : 29
                    },
                    "indices" : 7,
                    "material" : 3
                }
            ]
        },
        {
            "name" : "Mesh_6",
            "primitives" : [
                {
                    "attributes" : {
                        "POSITION" : 30,
                        "NORMAL" : 31,
                        "TEXCOORD_0" : 32
                    },
                    "indices" : 17,
                    "material" : 3
                }
            ]
        }
    ],
    "textures" : [
        {
            "sampler" : 0,
            "source" : 0
        },
        {
            "sampler" : 0,
            "source" : 1
        }
    ],
    "images" : [
        {
            "bufferView" : 4,
            "mimeType" : "image/png",
            "name" : "Image_0"
        },
        {
            "bufferView" : 22,
            "mimeType" : "image/png",
            "name" : "Image_1"
        }
    ],
    "accessors" : [
        {
            "bufferView" : 0,
            "componentType" : 5126,
            "count" : 155,
            "max" : [
                0.05939999967813492,
                0.05907459929585457,
                0.3197731375694275
            ],
            "min" : [
                -0.05939999967813492,
                -0.05907459929585457,
                -0.3197731375694275
            ],
            "type" : "VEC3"
        },
        {
            "bufferView" : 1,
            "componentType" : 5126,
            "count" : 155,
            "type" : "VEC3"
        },
        {
            "bufferView" : 2,
            "componentType" : 5126,
            "count" : 155,
            "type" : "VEC2"
        },
        {
            "bufferView" : 3,
            "componentType" : 5123,
            "count" : 720,
            "type" : "SCALAR"
        },
        {
            "bufferView" : 5,
            "componentType" : 5126,
            "count" : 401,
            "max" : [
                0.05839986726641655,
                0.05807994678616524,
                0.20000000298023224
            ],
            "min" : [
                -0.05839986726641655,
                -0.05807994678616524,
                0
            ],
            "type" : "VEC3"
        },
        {
            "bufferView" : 6,
            "componentType" : 5126,
            "count" : 401,
            "type" : "VEC3"
        },
        {
            "bufferView" : 7,
            "componentType" : 5126,
            "count" : 401,
            "type" : "VEC2"
        },
        {
            "bufferView" : 8,
            "componentType" : 5123,
            "count" : 1980,
            "type" : "SCALAR"
        },
        {
            "bufferView" : 9,
            "componentType" : 5126,
            "count" : 401,
            "max" : [
                0.058084066957235336,
                0.05776587501168251,
                0
            ],
            "min" : [
                -0.058084066957235336,
                -0.05776587501168251,
                -0.05999999865889549
            ],
            "type" : "VEC3"
        },
        {
            "bufferView" : 10,
            "componentType" : 5126,
            "count" : 401,
            "type" : "VEC3"
        },
        {
            "bufferView" : 11,
            "componentType" : 5126,
            "count" : 401,
            "type" : "VEC2"
        },
        {
            "bufferView" : 12,
            "componentType" : 5126,
            "count" : 401,
            "max" : [
                0.058400001376867294,
                0.058080077171325684,
                0.3799275755882263
            ],
            "min" : [
                -0.058400001376867294,
                -0.058080077171325684,
                -0.3799275755882263
            ],
            "type" : "VEC3"
        },
        {
            "bufferView" : 13,
            "componentType" : 5126,
            "count" : 401,
            "type" : "VEC3"
        },
        {
            "bufferView" : 14,
            "componentType" : 5126,
            "count" : 401,
            "type" : "VEC2"
        },
        {
            "bufferView" : 15,
            "componentType" : 5126,
            "count" : 525,
            "max" : [
                0.03806324303150177,
                0.03785472735762596,
                0
            ],
            "min" : [
                -0.03806324303150177,
                -0.03785472735762596,
                -0.07999999821186066
            ],
            "type" : "VEC3"
        },
        {
            "bufferView" : 16,
            "componentType" : 5126,
            "count" : 525,
            "type" : "VEC3"
        },
        {
            "bufferView" : 17,
            "componentType" : 5126,
            "count" : 525,
            "type" : "VEC2"
        },
        {
            "bufferView" : 18,
            "componentType" : 5123,
            "count" : 2700,
            "type" : "SCALAR"
        },
        {
            "bufferView" : 19,
            "componentType" : 5126,
            "count" : 155,
            "max" : [
                0.05939999967813492,
                0.05907459929585457,
                0.3197731375694275
            ],
            "min" : [
                -0.05939999967813492,
                -0.05907459929585457,
                -0.3197731375694275
            ],
            "type" : "VEC3"
        },
        {
            "bufferView" : 20,
            "componentType" : 5126,
            "count" : 155,
            "type" : "VEC3"
        },
        {
            "bufferView" : 21,
            "componentType" : 5126,
            "count" : 155,
            "type" : "VEC2"
        },
        {
            "bufferView" : 23,
            "componentType" : 5126,
            "count" : 401,
            "max" : [
                0.05839986726641655,
                0.05807994678616524,
                0.20000000298023224
            ],
            "min" : [
                -0.05839986726641655,
                -0.05807994678616524,
                0
            ],
            "type" : "VEC3"
        },
        {
            "bufferView" : 24,
            "componentType" : 5126,
            "count" : 401,
            "type" : "VEC3"
        },
        {
            "bufferView" : 25,
            "componentType" : 5126,
            "count" : 401,
            "type" : "VEC2"
        },
        {
            "bufferView" : 26,
            "componentType" : 5126,
            "count" : 401,
            "max" : [
                0.058084066957235336,
                0.05776587501168251,
                0
            ],
            "min" : [
                -0.058084066957235336,
                -0.05776587501168251,
                -0.05999999865889549
            ],
            "type" : "VEC3"
        },
        {
            "bufferView" : 27,
            "componentType" : 5126,
            "count" : 401,
            "type" : "VEC3"
        },
        {
            "bufferView" : 28,
            "componentType" : 5126,
            "count" : 401,
            "type" : "VEC2"
        },
        {
            "bufferView" : 29,
            "componentType" : 5126,
            "count" : 401,
            "max" : [
                0.058400001376867294,
                0.058080077171325684,
                0.3799275755882263
            ],
            "min" : [
                -0.058400001376867294,
                -0.058080077171325684,
                -0.3799275755882263
            ],
            "type" : "VEC3"
        },
        {
            "bufferView" : 30,
            "componentType" : 5126,
            "count" : 401,
            "type" : "VEC3"
        },
        {
            "bufferView" : 31,
            "componentType" : 5126,
            "count" : 401,
            "type" : "VEC2"
        },
        {
            "bufferView" : 32,
            "componentType" : 5126,
            "count" : 525,
            "max" : [
                0.03806324303150177,
                0.03785472735762596,
                0
            ],
            "min" : [
                -0.03806324303150177,
                -0.03785472735762596,
                -0.07999999821186066
            ],
            "type" : "VEC3"
        },
        {
            "bufferView" : 33,
            "componentType" : 5126,
            "count" : 525,
            "type" : "VEC3"
        },
        {
            "bufferView" : 34,
            "componentType" : 5126,
            "count" : 525,
            "type" : "VEC2"
        }
    ],
    "bufferViews" : [
        {
            "buffer" : 0,
            "byteLength" : 1860,
            "byteOffset" : 0
        },
        {
            "buffer" : 0,
            "byteLength" : 1860,
            "byteOffset" : 1860
        },
        {
            "buffer" : 0,
            "byteLength" : 1240,
            "byteOffset" : 3720
        },
        {
            "buffer" : 0,
            "byteLength" : 1440,
            "byteOffset" : 4960
        },
        {
            "buffer" : 0,
            "byteLength" : 89816,
            "byteOffset" : 6400
        },
        {
            "buffer" : 0,
            "byteLength" : 4812,
            "byteOffset" : 96216
        },
        {
            "buffer" : 0,
            "byteLength" : 4812,
            "byteOffset" : 101028
        },
        {
            "buffer" : 0,
            "byteLength" : 3208,
            "byteOffset" : 105840
        },
        {
            "buffer" : 0,
            "byteLength" : 3960,
            "byteOffset" : 109048
        },
        {
            "buffer" : 0,
            "byteLength" : 4812,
            "byteOffset" : 113008
        },
        {
            "buffer" : 0,
            "byteLength" : 4812,
            "byteOffset" : 117820
        },
        {
            "buffer" : 0,
            "byteLength" : 3208,
            "byteOffset" : 122632
        },
        {
            "buffer" : 0,
            "byteLength" : 4812,
            "byteOffset" : 125840
        },
        {
            "buffer" : 0,
            "byteLength" : 4812,
            "byteOffset" : 130652
        },
        {
            "buffer" : 0,
            "byteLength" : 3208,
            "byteOffset" : 135464
        },
        {
            "buffer" : 0,
            "byteLength" : 6300,
            "byteOffset" : 138672
        },
        {
            "buffer" : 0,
            "byteLength" : 6300,
            "byteOffset" : 144972
        },
        {
            "buffer" : 0,
            "byteLength" : 4200,
            "byteOffset" : 151272
        },
        {
            "buffer" : 0,
            "byteLength" : 5400,
            "byteOffset" : 155472
        },
        {
            "buffer" : 0,
            "byteLength" : 1860,
            "byteOffset" : 160872
        },
        {
            "buffer" : 0,
            "byteLength" : 1860,
            "byteOffset" : 162732
        },
        {
            "buffer" : 0,
            "byteLength" : 1240,
            "byteOffset" : 164592
        },
        {
            "buffer" : 0,
            "byteLength" : 89600,
            "byteOffset" : 165832
        },
        {
            "buffer" : 0,
            "byteLength" : 4812,
            "byteOffset" : 255432
        },
        {
            "buffer" : 0,
            "byteLength" : 4812,
            "byteOffset" : 260244
        },
        {
            "buffer" : 0,
            "byteLength" : 3208,
            "byteOffset" : 265056
        },
        {
            "buffer" : 0,
            "byteLength" : 4812,
            "byteOffset" : 268264
        },
        {
            "buffer" : 0,
            "byteLength" : 4812,
            "byteOffset" : 273076
        },
        {
            "buffer" : 0,
            "byteLength" : 3208,
            "byteOffset" : 277888
        },
        {
            "buffer" : 0,
            "byteLength" : 4812,
            "byteOffset" : 281096
        },
        {
            "buffer" : 0,
            "byteLength" : 4812,
            "byteOffset" : 285908
        },
        {
            "buffer" : 0,
            "byteLength" : 3208,
            "byteOffset" : 290720
        },
        {
            "buffer" : 0,
            "byteLength" : 6300,
            "byteOffset" : 293928
        },
        {
            "buffer" : 0,
            "byteLength" : 6300,
            "byteOffset" : 300228
        },
        {
            "buffer" : 0,
            "byteLength" : 4200,
            "byteOffset" : 306528
        }
    ],
    "samplers" : [
        {
            "magFilter" : 9729,
            "minFilter" : 9987
        }
    ],
    "buffers" : [
        {
            "byteLength" : 310728,
            "uri" : "data:application/octet-stream;base64,"
        }
    ]
}
