{
	"materials":[{
		"pbrMetallicRoughness":{
			"baseColorTexture":{
				"index":0
			},
			"baseColorFactor":[1.0,
			0.22250423011844523,
			0.06700507614213414,
			1.0],
			"metallicFactor":0.2,
			"roughnessFactor":0.75
		},
		"normalTexture":{
			"index":1,
			"scale":0.5
		},
		"emissiveFactor":[0.0,
		0.0,
		0.0],
		"alphaMode":"OPAQUE",
		"doubleSided":true,
		"name":"mat4"
	},
	{
		"pbrMetallicRoughness":{
			"baseColorTexture":{
				"index":2
			},
			"baseColorFactor":[0.7411167512690182,
			0.09254554355947736,
			0.2654978656153549,
			1.0],
			"metallicFactor":0.2,
			"roughnessFactor":0.75
		},
		"normalTexture":{
			"index":3,
			"scale":1.0
		},
		"emissiveFactor":[0.0,
		0.0,
		0.0],
		"alphaMode":"OPAQUE",
		"doubleSided":true,
		"name":"Mat.3"
	},
	{
		"pbrMetallicRoughness":{
			"baseColorFactor":[0.9340101522842645,
			0.3950341415651039,
			0.16404442268546355,
			1.0],
			"metallicFactor":1.0,
			"roughnessFactor":0.35000000000000006
		},
		"normalTexture":{
			"index":4,
			"scale":0.8
		},
		"emissiveFactor":[0.0,
		0.0,
		0.0],
		"alphaMode":"OPAQUE",
		"doubleSided":true,
		"name":"glitter2"
	},
	{
		"pbrMetallicRoughness":{
			"baseColorFactor":[1.0,
			0.876,
			0.06999999999999995,
			1.0],
			"metallicFactor":0.0,
			"roughnessFactor":1.0
		},
		"emissiveFactor":[0.0,
		0.0,
		0.0],
		"alphaMode":"OPAQUE",
		"doubleSided":true,
		"name":"CaseMain"
	},
	{
		"pbrMetallicRoughness":{
			"baseColorTexture":{
				"index":5
			},
			"baseColorFactor":[1.0,
			1.0,
			1.0,
			1.0],
			"metallicFactor":1.0,
			"roughnessFactor":1.0
		},
		"emissiveFactor":[0.0,
		0.0,
		0.0],
		"alphaMode":"BLEND",
		"doubleSided":true,
		"name":"CaseOuterImage"
	},
	{
		"pbrMetallicRoughness":{
			"baseColorFactor":[1.0,
			1.0,
			1.0,
			0.25],
			"metallicFactor":1.0,
			"roughnessFactor":0.14
		},
		"emissiveFactor":[0.0,
		0.0,
		0.0],
		"alphaMode":"BLEND",
		"doubleSided":true,
		"name":"Glass"
	}],
	"nodes":[{
		"name":"Null.1",
		"translation":[0.0,
		0.041466765105724338,
		-0.0025914034340530636],
		"rotation":[0.5,
		0.5,
		0.5,
		0.5],
		"scale":[1.0,
		1.0,
		1.0],
		"children":[1,
		2,
		3,
		4,
		5,
		6]
	},
	{
		"name":"Plane.1_remesh",
		"mesh":0,
		"translation":[-0.02520027942955494,
		0.002524846699088812,
		0.003030068939551711],
		"rotation":[0.0,
		0.0,
		0.0,
		-1.0],
		"scale":[1.0,
		1.0,
		1.0]
	},
	{
		"name":"Plane.1_remesh",
		"mesh":1,
		"translation":[0.02507004328072071,
		0.002524846699088812,
		0.003030068939551711],
		"rotation":[0.0,
		0.0,
		0.0,
		-1.0],
		"scale":[1.0,
		1.0,
		1.0]
	},
	{
		"name":"Plane",
		"mesh":2,
		"translation":[-0.0001649285404710099,
		0.0025795064866542818,
		0.002800135873258114],
		"rotation":[0.0,
		0.0,
		0.0,
		-1.0],
		"scale":[1.0,
		1.0,
		1.0]
	},
	{
		"name":"Bottom",
		"mesh":3
	},
	{
		"name":"Bottom.1",
		"mesh":4,
		"translation":[-1.1147943679290507e-9,
		0.0020827711559832098,
		0.01342596486210823],
		"rotation":[0.0,
		0.0,
		0.0,
		-1.0],
		"scale":[0.10000000149011612,
		0.10000000149011612,
		0.10000000149011612]
	},
	{
		"name":"Null",
		"translation":[0.0,
		0.0,
		0.0],
		"rotation":[0.0,
		0.0,
		7.450580596923828e-9,
		-1.0],
		"scale":[0.10000000149011612,
		0.10000000149011612,
		0.10000000149011612],
		"children":[7]
	},
	{
		"name":"BarbieCase",
		"children":[8]
	},
	{
		"name":"TopOpen",
		"translation":[0.0,
		0.015388013795018196,
		-0.21211840212345124],
		"rotation":[0.0,
		0.0,
		0.0,
		-1.0],
		"scale":[1.0,
		1.0,
		1.0],
		"children":[9,
		10]
	},
	{
		"name":"Top",
		"children":[11,
		12]
	},
	{
		"name":"TopPrint",
		"mesh":5,
		"translation":[7.164506423364332e-17,
		0.0008777226903475821,
		8.059955244488096e-17],
		"rotation":[-6.162975822039155e-33,
		0.0,
		0.0,
		-1.0],
		"scale":[1.0,
		1.0,
		1.0]
	},
	{
		"name":"Top-Glass",
		"mesh":6
	},
	{
		"name":"Top-CaseMain",
		"mesh":7
	}],
	"asset":{
		"version":"2.0",
		"generator":"Maxon Cinema 4D 2023.1.3 (#200000219)"
	},
	"scenes":[{
		"nodes":[0]
	}],
	"meshes":[{
		"name":"Plane.1_remesh",
		"primitives":[{
			"attributes":{
				"POSITION":1,
				"NORMAL":2,
				"TEXCOORD_0":3
			},
			"indices":0,
			"material":0
		}]
	},
	{
		"name":"Plane.1_remesh",
		"primitives":[{
			"attributes":{
				"POSITION":5,
				"NORMAL":6,
				"TEXCOORD_0":7
			},
			"indices":4,
			"material":1
		}]
	},
	{
		"name":"Plane",
		"primitives":[{
			"attributes":{
				"POSITION":9,
				"NORMAL":10,
				"TEXCOORD_0":11
			},
			"indices":8,
			"material":2
		}]
	},
	{
		"name":"Bottom",
		"primitives":[{
			"attributes":{
				"POSITION":13,
				"NORMAL":14,
				"TEXCOORD_0":15
			},
			"indices":12,
			"material":3
		}]
	},
	{
		"name":"Bottom.1",
		"primitives":[{
			"attributes":{
				"POSITION":17,
				"NORMAL":18,
				"TEXCOORD_0":19
			},
			"indices":16,
			"material":3
		}]
	},
	{
		"name":"TopPrint",
		"primitives":[{
			"attributes":{
				"POSITION":23,
				"NORMAL":24,
				"TEXCOORD_0":25
			},
			"indices":22,
			"material":4
		}]
	},
	{
		"name":"Top-Glass",
		"primitives":[{
			"attributes":{
				"POSITION":27,
				"NORMAL":28,
				"TEXCOORD_0":29
			},
			"indices":26,
			"material":5
		}]
	},
	{
		"name":"Top-CaseMain",
		"primitives":[{
			"attributes":{
				"POSITION":31,
				"NORMAL":32,
				"TEXCOORD_0":33
			},
			"indices":30,
			"material":3
		}]
	}],
	"accessors":[{
		"bufferView":0,
		"type":"SCALAR",
		"componentType":5123,
		"count":15924,
		"byteOffset":0,
		"min":[0],
		"max":[2753]
	},
	{
		"bufferView":1,
		"type":"VEC3",
		"componentType":5126,
		"count":2754,
		"byteOffset":0,
		"min":[-0.012062001042068005,
		0.000049352085625287148,
		-0.020499998703598977],
		"max":[0.012062001042068005,
		0.0003000000142492354,
		0.020499998703598977]
	},
	{
		"bufferView":1,
		"type":"VEC3",
		"componentType":5126,
		"count":2754,
		"byteOffset":12,
		"min":[-0.4493194818496704,
		0.8931388258934021,
		-0.2723469138145447],
		"max":[0.34991294145584109,
		1.0,
		0.28603503108024599]
	},
	{
		"bufferView":1,
		"type":"VEC2",
		"componentType":5126,
		"count":2754,
		"byteOffset":24,
		"min":[0.08852674067020416,
		0.1287079155445099],
		"max":[0.9242439270019531,
		0.8658778667449951]
	},
	{
		"bufferView":2,
		"type":"SCALAR",
		"componentType":5123,
		"count":15924,
		"byteOffset":0,
		"min":[0],
		"max":[2753]
	},
	{
		"bufferView":3,
		"type":"VEC3",
		"componentType":5126,
		"count":2754,
		"byteOffset":0,
		"min":[-0.012062001042068005,
		0.000049352085625287148,
		-0.020499998703598977],
		"max":[0.012062001042068005,
		0.0003000000142492354,
		0.020499998703598977]
	},
	{
		"bufferView":3,
		"type":"VEC3",
		"componentType":5126,
		"count":2754,
		"byteOffset":12,
		"min":[-0.4493194818496704,
		0.8931388258934021,
		-0.2723469138145447],
		"max":[0.34991294145584109,
		1.0,
		0.28603503108024599]
	},
	{
		"bufferView":3,
		"type":"VEC2",
		"componentType":5126,
		"count":2754,
		"byteOffset":24,
		"min":[0.08852674067020416,
		0.1287079155445099],
		"max":[0.9242439270019531,
		0.8658778667449951]
	},
	{
		"bufferView":4,
		"type":"SCALAR",
		"componentType":5123,
		"count":6,
		"byteOffset":0,
		"min":[0],
		"max":[3]
	},
	{
		"bufferView":5,
		"type":"VEC3",
		"componentType":5126,
		"count":4,
		"byteOffset":0,
		"min":[-0.013122063130140305,
		0.0,
		-0.020500000566244127],
		"max":[0.013122063130140305,
		0.0,
		0.020500000566244127]
	},
	{
		"bufferView":5,
		"type":"VEC3",
		"componentType":5126,
		"count":4,
		"byteOffset":12,
		"min":[0.0,
		1.0,
		0.0],
		"max":[0.0,
		1.0,
		0.0]
	},
	{
		"bufferView":5,
		"type":"VEC2",
		"componentType":5126,
		"count":4,
		"byteOffset":24,
		"min":[0.0,
		0.0],
		"max":[2.4243998527526857,
		4.0]
	},
	{
		"bufferView":6,
		"type":"SCALAR",
		"componentType":5123,
		"count":19602,
		"byteOffset":0,
		"min":[0],
		"max":[4718]
	},
	{
		"bufferView":7,
		"type":"VEC3",
		"componentType":5126,
		"count":4719,
		"byteOffset":0,
		"min":[-0.041099999099969867,
		-4.984224757413796e-18,
		-0.024165723472833635],
		"max":[0.041099999099969867,
		0.003800000064074993,
		0.027834275737404825]
	},
	{
		"bufferView":7,
		"type":"VEC3",
		"componentType":5126,
		"count":4719,
		"byteOffset":12,
		"min":[-1.0,
		-1.0,
		-1.0],
		"max":[1.0,
		1.0,
		1.0]
	},
	{
		"bufferView":7,
		"type":"VEC2",
		"componentType":5126,
		"count":4719,
		"byteOffset":24,
		"min":[-0.039612311869859698,
		-77695.953125],
		"max":[1.0750093460083008,
		1.7975971698760987]
	},
	{
		"bufferView":8,
		"type":"SCALAR",
		"componentType":5123,
		"count":3792,
		"byteOffset":0,
		"min":[0],
		"max":[841]
	},
	{
		"bufferView":9,
		"type":"VEC3",
		"componentType":5126,
		"count":842,
		"byteOffset":0,
		"min":[-0.40134796500205996,
		0.014002710580825806,
		0.12622109055519105],
		"max":[0.40134796500205996,
		0.027652710676193239,
		0.14229004085063935]
	},
	{
		"bufferView":9,
		"type":"VEC3",
		"componentType":5126,
		"count":842,
		"byteOffset":12,
		"min":[-0.9980546832084656,
		-1.0,
		-0.9999986886978149],
		"max":[0.9980546832084656,
		1.0,
		0.9972987174987793]
	},
	{
		"bufferView":9,
		"type":"VEC2",
		"componentType":5126,
		"count":842,
		"byteOffset":24,
		"min":[0.0,
		0.0],
		"max":[1.0,
		1.0]
	},
	{
		"bufferView":10,
		"type":"SCALAR",
		"componentType":5126,
		"count":91,
		"byteOffset":0,
		"min":[0.0],
		"max":[3.0]
	},
	{
		"bufferView":10,
		"type":"VEC4",
		"componentType":5126,
		"count":91,
		"byteOffset":364,
		"min":[0.0,
		-3.9985401267556028e-17,
		0.0,
		-1.0],
		"max":[0.9537169337272644,
		0.0,
		3.9985401267556028e-17,
		-0.30070579051971438]
	},
	{
		"bufferView":11,
		"type":"SCALAR",
		"componentType":5123,
		"count":216,
		"byteOffset":0,
		"min":[0],
		"max":[73]
	},
	{
		"bufferView":12,
		"type":"VEC3",
		"componentType":5126,
		"count":74,
		"byteOffset":0,
		"min":[-0.40700000524520876,
		0.041332852095365527,
		-0.025322983041405679],
		"max":[0.40700000524520876,
		0.041332852095365527,
		0.4707927107810974]
	},
	{
		"bufferView":12,
		"type":"VEC3",
		"componentType":5126,
		"count":74,
		"byteOffset":12,
		"min":[0.0,
		1.0,
		0.0],
		"max":[0.0,
		1.0,
		0.0]
	},
	{
		"bufferView":12,
		"type":"VEC2",
		"componentType":5126,
		"count":74,
		"byteOffset":24,
		"min":[0.032906029373407367,
		0.01898036152124405],
		"max":[0.9670939445495606,
		0.9810196161270142]
	},
	{
		"bufferView":13,
		"type":"SCALAR",
		"componentType":5123,
		"count":7860,
		"byteOffset":0,
		"min":[0],
		"max":[2431]
	},
	{
		"bufferView":14,
		"type":"VEC3",
		"componentType":5126,
		"count":2432,
		"byteOffset":0,
		"min":[-0.41100001335144045,
		-0.01175158191472292,
		-0.02932298183441162],
		"max":[0.41100001335144045,
		0.03981833532452583,
		0.49965837597846987]
	},
	{
		"bufferView":14,
		"type":"VEC3",
		"componentType":5126,
		"count":2432,
		"byteOffset":12,
		"min":[-1.0,
		-1.0,
		-1.0],
		"max":[1.0,
		1.0,
		1.0]
	},
	{
		"bufferView":14,
		"type":"VEC2",
		"componentType":5126,
		"count":2432,
		"byteOffset":24,
		"min":[-0.06318933516740799,
		-0.351625919342041],
		"max":[1.1196545362472535,
		1.351625919342041]
	},
	{
		"bufferView":15,
		"type":"SCALAR",
		"componentType":5123,
		"count":480,
		"byteOffset":0,
		"min":[0],
		"max":[118]
	},
	{
		"bufferView":16,
		"type":"VEC3",
		"componentType":5126,
		"count":119,
		"byteOffset":0,
		"min":[-0.32199999690055849,
		-0.00800000037997961,
		-0.00800000037997961],
		"max":[0.32199999690055849,
		0.00800000037997961,
		0.00800000037997961]
	},
	{
		"bufferView":16,
		"type":"VEC3",
		"componentType":5126,
		"count":119,
		"byteOffset":12,
		"min":[-1.0,
		-1.0,
		-1.0],
		"max":[1.0,
		1.0,
		1.0]
	},
	{
		"bufferView":16,
		"type":"VEC2",
		"componentType":5126,
		"count":119,
		"byteOffset":24,
		"min":[0.0,
		0.0],
		"max":[1.0,
		1.0]
	}],
	"bufferViews":[{
		"target":34963,
		"buffer":0,
		"byteOffset":0,
		"byteLength":31848
	},
	{
		"target":34962,
		"buffer":0,
		"byteOffset":31848,
		"byteLength":88128,
		"byteStride":32
	},
	{
		"target":34963,
		"buffer":1,
		"byteOffset":0,
		"byteLength":31848
	},
	{
		"target":34962,
		"buffer":1,
		"byteOffset":31848,
		"byteLength":88128,
		"byteStride":32
	},
	{
		"target":34963,
		"buffer":2,
		"byteOffset":0,
		"byteLength":12
	},
	{
		"target":34962,
		"buffer":2,
		"byteOffset":12,
		"byteLength":128,
		"byteStride":32
	},
	{
		"target":34963,
		"buffer":3,
		"byteOffset":0,
		"byteLength":39204
	},
	{
		"target":34962,
		"buffer":3,
		"byteOffset":39204,
		"byteLength":151008,
		"byteStride":32
	},
	{
		"target":34963,
		"buffer":4,
		"byteOffset":0,
		"byteLength":7584
	},
	{
		"target":34962,
		"buffer":4,
		"byteOffset":7584,
		"byteLength":26944,
		"byteStride":32
	},
	{
		"buffer":5,
		"byteOffset":0,
		"byteLength":1820
	},
	{
		"target":34963,
		"buffer":6,
		"byteOffset":0,
		"byteLength":432
	},
	{
		"target":34962,
		"buffer":6,
		"byteOffset":432,
		"byteLength":2368,
		"byteStride":32
	},
	{
		"target":34963,
		"buffer":7,
		"byteOffset":0,
		"byteLength":15720
	},
	{
		"target":34962,
		"buffer":7,
		"byteOffset":15720,
		"byteLength":77824,
		"byteStride":32
	},
	{
		"target":34963,
		"buffer":8,
		"byteOffset":0,
		"byteLength":960
	},
	{
		"target":34962,
		"buffer":8,
		"byteOffset":960,
		"byteLength":3808,
		"byteStride":32
	}],
	"buffers":[{
		"uri":"data:application/octet-stream;base64,",
		"byteLength":119976
	},
	{
		"uri":"data:application/octet-stream;base64,",
		"byteLength":119976
	},
	{
		"uri":"data:application/octet-stream;base64,",
		"byteLength":140
	},
	{
		"uri":"data:application/octet-stream;base64,",
		"byteLength":190212
	},
	{
		"uri":"data:application/octet-stream;base64,",
		"byteLength":34528
	},
	{
		"uri":"data:application/octet-stream;base64,",
		"byteLength":1820
	},
	{
		"uri":"data:application/octet-stream;base64,",
		"byteLength":2800
	},
	{
		"uri":"data:application/octet-stream;base64,",
		"byteLength":93544
	},
	{
		"uri":"data:application/octet-stream;base64,",
		"byteLength":4768
	}],
	"images":[{
		"uri":"data:image/jpeg;base64,"
	},
	{
		"uri":"data:image/png;base64,"
	},
	{
		"uri":"data:image/png;base64,"
	},
	{
		"uri":"data:image/png;base64,"
	}],
	"samplers":[{
		"magFilter":9729,
		"minFilter":9729,
		"wrapS":10497,
		"wrapT":10497
	},
	{
		"magFilter":9729,
		"minFilter":9729,
		"wrapS":10497,
		"wrapT":10497
	},
	{
		"magFilter":9729,
		"minFilter":9729,
		"wrapS":10497,
		"wrapT":10497
	},
	{
		"magFilter":9729,
		"minFilter":9729,
		"wrapS":10497,
		"wrapT":10497
	},
	{
		"magFilter":9729,
		"minFilter":9729,
		"wrapS":10497,
		"wrapT":10497
	},
	{
		"magFilter":9729,
		"minFilter":9729,
		"wrapS":10497,
		"wrapT":10497
	}],
	"textures":[{
		"sampler":0,
		"source":0
	},
	{
		"sampler":1,
		"source":1
	},
	{
		"sampler":2,
		"source":0
	},
	{
		"sampler":3,
		"source":1
	},
	{
		"sampler":4,
		"source":2
	},
	{
		"sampler":5,
		"source":3
	}],
	"animations":[{
		"samplers":[{
			"input":20,
			"interpolation":"LINEAR",
			"output":21
		}],
		"channels":[{
			"sampler":0,
			"target":{
				"node":8,
				"path":"rotation"
			}
		}]
	}]
}