{
    "asset" : {
        "generator" : "Khronos glTF Blender I/O v1.6.16",
        "version" : "2.0"
    },
    "scene" : 0,
    "scenes" : [
        {
            "name" : "Scene",
            "nodes" : [
                7
            ]
        }
    ],
    "nodes" : [
        {
            "mesh" : 0,
            "name" : "Bottom"
        },
        {
            "mesh" : 1,
            "name" : "Top"
        },
        {
            "children" : [
                0,
                1
            ],
            "name" : "BevGrp",
            "rotation" : [
                0.7071068286895752,
                0,
                0,
                0.7071068286895752
            ],
            "translation" : [
                0.0009564001811668277,
                -0.0661676749587059,
                -0.0008170191431418061
            ]
        },
        {
            "mesh" : 2,
            "name" : "BottomPrint",
            "rotation" : [
                0.09229596704244614,
                -0.7010573744773865,
                0.7010573744773865,
                0.09229595214128494
            ],
            "translation" : [
                0.0009564001811668277,
                0.10609655827283859,
                -0.0008170191431418061
            ]
        },
        {
            "mesh" : 3,
            "name" : "center",
            "rotation" : [
                0.7071068286895752,
                0,
                0,
                0.7071068286895752
            ],
            "translation" : [
                0.0009564001811668277,
                0.5085314512252808,
                -0.0008170191431418061
            ]
        },
        {
            "mesh" : 4,
            "name" : "TopPrint",
            "rotation" : [
                0.7071068286895752,
                0,
                0,
                0.7071068286895752
            ],
            "translation" : [
                0.0009564001811668277,
                0.5357277989387512,
                -0.0008170191431418061
            ]
        },
        {
            "children" : [
                2,
                3,
                4,
                5
            ],
            "name" : "LipGloss"
        },
        {
            "children" : [
                6
            ],
            "name" : "fcdcb063-6689-43f2-9f72-e78c6e5b28c9",
            "scale" : [
                0.10000000149011612,
                0.10000000149011612,
                0.10000000149011612
            ]
        }
    ],
    "materials" : [
        {
            "doubleSided" : true,
            "name" : "MainColor",
            "pbrMetallicRoughness" : {
                "baseColorFactor" : [
                    0.6444796919822693,
                    0,
                    0.05951123684644699,
                    1
                ],
                "metallicFactor" : 0,
                "roughnessFactor" : 0.5
            }
        },
        {
            "alphaMode" : "BLEND",
            "doubleSided" : true,
            "name" : "BottomPrint",
            "pbrMetallicRoughness" : {
                "baseColorTexture" : {
                    "index" : 0
                },
                "metallicFactor" : 0,
                "roughnessFactor" : 0.5
            }
        },
        {
            "alphaMode" : "BLEND",
            "doubleSided" : true,
            "name" : "TopPrint",
            "pbrMetallicRoughness" : {
                "baseColorTexture" : {
                    "index" : 1
                },
                "metallicFactor" : 0,
                "roughnessFactor" : 0.5
            }
        }
    ],
    "meshes" : [
        {
            "name" : "Mesh_4",
            "primitives" : [
                {
                    "attributes" : {
                        "POSITION" : 0,
                        "NORMAL" : 1,
                        "TEXCOORD_0" : 2
                    },
                    "indices" : 3,
                    "material" : 0
                }
            ]
        },
        {
            "name" : "Mesh_3",
            "primitives" : [
                {
                    "attributes" : {
                        "POSITION" : 4,
                        "NORMAL" : 5,
                        "TEXCOORD_0" : 6
                    },
                    "indices" : 7,
                    "material" : 0
                }
            ]
        },
        {
            "name" : "Mesh_2",
            "primitives" : [
                {
                    "attributes" : {
                        "POSITION" : 8,
                        "NORMAL" : 9,
                        "TEXCOORD_0" : 10
                    },
                    "indices" : 11,
                    "material" : 1
                }
            ]
        },
        {
            "name" : "Mesh_0",
            "primitives" : [
                {
                    "attributes" : {
                        "POSITION" : 12,
                        "NORMAL" : 13,
                        "TEXCOORD_0" : 14
                    },
                    "indices" : 15,
                    "material" : 0
                }
            ]
        },
        {
            "name" : "Mesh_1",
            "primitives" : [
                {
                    "attributes" : {
                        "POSITION" : 16,
                        "NORMAL" : 17,
                        "TEXCOORD_0" : 18
                    },
                    "indices" : 19,
                    "material" : 2
                }
            ]
        }
    ],
    "textures" : [
        {
            "sampler" : 0,
            "source" : 0
        },
        {
            "sampler" : 0,
            "source" : 1
        }
    ],
    "images" : [
        {
            "bufferView" : 12,
            "mimeType" : "image/png",
            "name" : "Image_1"
        },
        {
            "bufferView" : 21,
            "mimeType" : "image/png",
            "name" : "Image_0"
        }
    ],
    "accessors" : [
        {
            "bufferView" : 0,
            "componentType" : 5126,
            "count" : 491,
            "max" : [
                0.09933553636074066,
                0.09879136085510254,
                -0.06578213721513748
            ],
            "min" : [
                -0.09933553636074066,
                -0.09879136085510254,
                -0.5772336721420288
            ],
            "type" : "VEC3"
        },
        {
            "bufferView" : 1,
            "componentType" : 5126,
            "count" : 491,
            "type" : "VEC3"
        },
        {
            "bufferView" : 2,
            "componentType" : 5126,
            "count" : 491,
            "type" : "VEC2"
        },
        {
            "bufferView" : 3,
            "componentType" : 5123,
            "count" : 2514,
            "type" : "SCALAR"
        },
        {
            "bufferView" : 4,
            "componentType" : 5126,
            "count" : 460,
            "max" : [
                0.09781799465417862,
                0.09728214144706726,
                -0.5821311473846436
            ],
            "min" : [
                -0.09781799465417862,
                -0.09728214144706726,
                -0.9780625700950623
            ],
            "type" : "VEC3"
        },
        {
            "bufferView" : 5,
            "componentType" : 5126,
            "count" : 460,
            "type" : "VEC3"
        },
        {
            "bufferView" : 6,
            "componentType" : 5126,
            "count" : 460,
            "type" : "VEC2"
        },
        {
            "bufferView" : 7,
            "componentType" : 5123,
            "count" : 2334,
            "type" : "SCALAR"
        },
        {
            "bufferView" : 8,
            "componentType" : 5126,
            "count" : 124,
            "max" : [
                0.1004890725016594,
                0.09993857890367508,
                0
            ],
            "min" : [
                -0.1004890725016594,
                -0.09993857890367508,
                -0.37098076939582825
            ],
            "type" : "VEC3"
        },
        {
            "bufferView" : 9,
            "componentType" : 5126,
            "count" : 124,
            "type" : "VEC3"
        },
        {
            "bufferView" : 10,
            "componentType" : 5126,
            "count" : 124,
            "type" : "VEC2"
        },
        {
            "bufferView" : 11,
            "componentType" : 5123,
            "count" : 540,
            "type" : "SCALAR"
        },
        {
            "bufferView" : 13,
            "componentType" : 5126,
            "count" : 62,
            "max" : [
                0.08100000023841858,
                0.08055627346038818,
                0.03663226217031479
            ],
            "min" : [
                -0.08100000023841858,
                -0.08055627346038818,
                -0.03663226217031479
            ],
            "type" : "VEC3"
        },
        {
            "bufferView" : 14,
            "componentType" : 5126,
            "count" : 62,
            "type" : "VEC3"
        },
        {
            "bufferView" : 15,
            "componentType" : 5126,
            "count" : 62,
            "type" : "VEC2"
        },
        {
            "bufferView" : 16,
            "componentType" : 5123,
            "count" : 180,
            "type" : "SCALAR"
        },
        {
            "bufferView" : 17,
            "componentType" : 5126,
            "count" : 93,
            "max" : [
                0.09902762621641159,
                0.09848514944314957,
                0
            ],
            "min" : [
                -0.09902762621641159,
                -0.09848514944314957,
                -0.3434668779373169
            ],
            "type" : "VEC3"
        },
        {
            "bufferView" : 18,
            "componentType" : 5126,
            "count" : 93,
            "type" : "VEC3"
        },
        {
            "bufferView" : 19,
            "componentType" : 5126,
            "count" : 93,
            "type" : "VEC2"
        },
        {
            "bufferView" : 20,
            "componentType" : 5123,
            "count" : 360,
            "type" : "SCALAR"
        }
    ],
    "bufferViews" : [
        {
            "buffer" : 0,
            "byteLength" : 5892,
            "byteOffset" : 0
        },
        {
            "buffer" : 0,
            "byteLength" : 5892,
            "byteOffset" : 5892
        },
        {
            "buffer" : 0,
            "byteLength" : 3928,
            "byteOffset" : 11784
        },
        {
            "buffer" : 0,
            "byteLength" : 5028,
            "byteOffset" : 15712
        },
        {
            "buffer" : 0,
            "byteLength" : 5520,
            "byteOffset" : 20740
        },
        {
            "buffer" : 0,
            "byteLength" : 5520,
            "byteOffset" : 26260
        },
        {
            "buffer" : 0,
            "byteLength" : 3680,
            "byteOffset" : 31780
        },
        {
            "buffer" : 0,
            "byteLength" : 4668,
            "byteOffset" : 35460
        },
        {
            "buffer" : 0,
            "byteLength" : 1488,
            "byteOffset" : 40128
        },
        {
            "buffer" : 0,
            "byteLength" : 1488,
            "byteOffset" : 41616
        },
        {
            "buffer" : 0,
            "byteLength" : 992,
            "byteOffset" : 43104
        },
        {
            "buffer" : 0,
            "byteLength" : 1080,
            "byteOffset" : 44096
        },
        {
            "buffer" : 0,
            "byteLength" : 113368,
            "byteOffset" : 45176
        },
        {
            "buffer" : 0,
            "byteLength" : 744,
            "byteOffset" : 158544
        },
        {
            "buffer" : 0,
            "byteLength" : 744,
            "byteOffset" : 159288
        },
        {
            "buffer" : 0,
            "byteLength" : 496,
            "byteOffset" : 160032
        },
        {
            "buffer" : 0,
            "byteLength" : 360,
            "byteOffset" : 160528
        },
        {
            "buffer" : 0,
            "byteLength" : 1116,
            "byteOffset" : 160888
        },
        {
            "buffer" : 0,
            "byteLength" : 1116,
            "byteOffset" : 162004
        },
        {
            "buffer" : 0,
            "byteLength" : 744,
            "byteOffset" : 163120
        },
        {
            "buffer" : 0,
            "byteLength" : 720,
            "byteOffset" : 163864
        },
        {
            "buffer" : 0,
            "byteLength" : 56608,
            "byteOffset" : 164584
        }
    ],
    "samplers" : [
        {
            "magFilter" : 9729,
            "minFilter" : 9987
        }
    ],
    "buffers" : [
        {
            "byteLength" : 221192,
            "uri" : "data:application/octet-stream;base64,"
        }
    ]
}
